HIERARCHY
ROOT Hips
{
	OFFSET -14.64140 90.27770 -84.91600
	CHANNELS 6 Xposition Yposition Zposition Zrotation Xrotation Yrotation
	JOINT Spine
	{
		OFFSET 0.00000 13.20850 -1.60436
		CHANNELS 3 Zrotation Xrotation Yrotation
		JOINT Spine1
		{
			OFFSET 0.00000 8.61716 0.00000
			CHANNELS 3 Zrotation Xrotation Yrotation
			JOINT Spine2
			{
				OFFSET 0.00000 8.61717 0.00000
				CHANNELS 3 Zrotation Xrotation Yrotation
				JOINT Spine3
				{
					OFFSET 0.00000 8.61717 0.00000
					CHANNELS 3 Zrotation Xrotation Yrotation
					JOINT Neck
					{
						OFFSET 0.00000 11.07920 1.10792
						CHANNELS 3 Zrotation Xrotation Yrotation
						JOINT Neck1
						{
							OFFSET 0.00000 7.08032 0.00000
							CHANNELS 3 Zrotation Xrotation Yrotation
							JOINT Head
							{
								OFFSET 0.00000 7.08031 0.00000
								CHANNELS 3 Zrotation Xrotation Yrotation
								End site
								{
									OFFSET 0.00000 0.00000 0.00000
								}
							}
						}
					}
					JOINT RightShoulder
					{
						OFFSET -0.01000 7.91373 5.19711
						CHANNELS 3 Zrotation Xrotation Yrotation
						JOINT RightArm
						{
							OFFSET -18.41580 0.00000 0.00000
							CHANNELS 3 Zrotation Xrotation Yrotation
							JOINT RightForeArm
							{
								OFFSET -29.11090 0.00000 0.00000
								CHANNELS 3 Zrotation Xrotation Yrotation
								JOINT RightHand
								{
									OFFSET -24.65040 0.00000 0.00000
									CHANNELS 3 Zrotation Xrotation Yrotation
									JOINT RightHandThumb1
									{
										OFFSET -5.35114 -0.85590 3.97906
										CHANNELS 3 Zrotation Xrotation Yrotation
										JOINT RightHandThumb2
										{
											OFFSET -4.52789 0.00000 0.00000
											CHANNELS 3 Zrotation Xrotation Yrotation
											JOINT RightHandThumb3
											{
												OFFSET -2.46976 0.00000 0.00000
												CHANNELS 3 Zrotation Xrotation Yrotation
												End site
												{
													OFFSET 0.00000 0.00000 0.00000
												}
											}
										}
									}
									JOINT RightHandIndex1
									{
										OFFSET -14.26970 0.00000 2.88139
										CHANNELS 3 Zrotation Xrotation Yrotation
										JOINT RightHandIndex2
										{
											OFFSET -5.48836 0.00000 0.00000
											CHANNELS 3 Zrotation Xrotation Yrotation
											JOINT RightHandIndex3
											{
												OFFSET -3.01859 0.00000 0.00000
												CHANNELS 3 Zrotation Xrotation Yrotation
												End site
												{
													OFFSET 0.00000 0.00000 0.00000
												}
											}
										}
									}
									JOINT RightHandMiddle1
									{
										OFFSET -14.26970 0.00000 -0.09147
										CHANNELS 3 Zrotation Xrotation Yrotation
										JOINT RightHandMiddle2
										{
											OFFSET -6.17441 0.00000 0.00000
											CHANNELS 3 Zrotation Xrotation Yrotation
											JOINT RightHandMiddle3
											{
												OFFSET -3.56743 0.00000 0.00000
												CHANNELS 3 Zrotation Xrotation Yrotation
												End site
												{
													OFFSET 0.00000 0.00000 0.00000
												}
											}
										}
									}
									JOINT RightHandRing1
									{
										OFFSET -12.69180 0.00000 -3.06433
										CHANNELS 3 Zrotation Xrotation Yrotation
										JOINT RightHandRing2
										{
											OFFSET -5.62556 0.00000 0.00000
											CHANNELS 3 Zrotation Xrotation Yrotation
											JOINT RightHandRing3
											{
												OFFSET -3.56744 0.00000 0.00000
												CHANNELS 3 Zrotation Xrotation Yrotation
												End site
												{
													OFFSET 0.00000 0.00000 0.00000
												}
											}
										}
									}
									JOINT RightHandPinky1
									{
										OFFSET -11.11390 0.00000 -6.03719
										CHANNELS 3 Zrotation Xrotation Yrotation
										JOINT RightHandPinky2
										{
											OFFSET -4.52789 0.00000 0.00000
											CHANNELS 3 Zrotation Xrotation Yrotation
											JOINT RightHandPinky3
											{
												OFFSET -2.46976 0.00000 0.00000
												CHANNELS 3 Zrotation Xrotation Yrotation
												End site
												{
													OFFSET 0.00000 0.00000 0.00000
												}
											}
										}
									}
								}
							}
						}
					}
					JOINT LeftShoulder
					{
						OFFSET 0.01000 7.91373 5.19711
						CHANNELS 3 Zrotation Xrotation Yrotation
						JOINT LeftArm
						{
							OFFSET 18.41580 0.00000 0.00000
							CHANNELS 3 Zrotation Xrotation Yrotation
							JOINT LeftForeArm
							{
								OFFSET 29.11090 0.00000 0.00000
								CHANNELS 3 Zrotation Xrotation Yrotation
								JOINT LeftHand
								{
									OFFSET 24.65040 0.00000 0.00000
									CHANNELS 3 Zrotation Xrotation Yrotation
									JOINT LeftHandThumb1
									{
										OFFSET 5.35114 -0.85590 3.97906
										CHANNELS 3 Zrotation Xrotation Yrotation
										JOINT LeftHandThumb2
										{
											OFFSET 4.52789 0.00000 0.00000
											CHANNELS 3 Zrotation Xrotation Yrotation
											JOINT LeftHandThumb3
											{
												OFFSET 2.46977 0.00000 0.00000
												CHANNELS 3 Zrotation Xrotation Yrotation
												End site
												{
													OFFSET 0.00000 0.00000 0.00000
												}
											}
										}
									}
									JOINT LeftHandIndex1
									{
										OFFSET 14.26970 0.00000 2.88139
										CHANNELS 3 Zrotation Xrotation Yrotation
										JOINT LeftHandIndex2
										{
											OFFSET 5.48836 0.00000 0.00000
											CHANNELS 3 Zrotation Xrotation Yrotation
											JOINT LeftHandIndex3
											{
												OFFSET 3.01859 0.00000 0.00000
												CHANNELS 3 Zrotation Xrotation Yrotation
												End site
												{
													OFFSET 0.00000 0.00000 0.00000
												}
											}
										}
									}
									JOINT LeftHandMiddle1
									{
										OFFSET 14.26970 0.00000 -0.09147
										CHANNELS 3 Zrotation Xrotation Yrotation
										JOINT LeftHandMiddle2
										{
											OFFSET 6.17440 0.00000 0.00000
											CHANNELS 3 Zrotation Xrotation Yrotation
											JOINT LeftHandMiddle3
											{
												OFFSET 3.56744 0.00000 0.00000
												CHANNELS 3 Zrotation Xrotation Yrotation
												End site
												{
													OFFSET 0.00000 0.00000 0.00000
												}
											}
										}
									}
									JOINT LeftHandRing1
									{
										OFFSET 12.69180 0.00000 -3.06433
										CHANNELS 3 Zrotation Xrotation Yrotation
										JOINT LeftHandRing2
										{
											OFFSET 5.62556 0.00000 0.00000
											CHANNELS 3 Zrotation Xrotation Yrotation
											JOINT LeftHandRing3
											{
												OFFSET 3.56744 0.00000 0.00000
												CHANNELS 3 Zrotation Xrotation Yrotation
												End site
												{
													OFFSET 0.00000 0.00000 0.00000
												}
											}
										}
									}
									JOINT LeftHandPinky1
									{
										OFFSET 11.11390 0.00000 -6.03719
										CHANNELS 3 Zrotation Xrotation Yrotation
										JOINT LeftHandPinky2
										{
											OFFSET 4.52789 0.00000 0.00000
											CHANNELS 3 Zrotation Xrotation Yrotation
											JOINT LeftHandPinky3
											{
												OFFSET 2.46976 0.00000 0.00000
												CHANNELS 3 Zrotation Xrotation Yrotation
												End site
												{
													OFFSET 0.00000 0.00000 0.00000
												}
											}
										}
									}
								}
							}
						}
					}
					JOINT pCube4
					{
						OFFSET 0.00000 10.91090 1.10792
						CHANNELS 3 Zrotation Xrotation Yrotation
						End site
						{
							OFFSET 0.00000 0.00000 0.00000
						}
					}
				}
			}
		}
	}
	JOINT RightUpLeg
	{
		OFFSET -9.98441 0.00000 0.00000
		CHANNELS 3 Zrotation Xrotation Yrotation
		JOINT RightLeg
		{
			OFFSET 0.00000 -42.11790 0.00000
			CHANNELS 3 Zrotation Xrotation Yrotation
			JOINT RightFoot
			{
				OFFSET 0.00000 -45.00020 -0.00001
				CHANNELS 3 Zrotation Xrotation Yrotation
				JOINT RightForeFoot
				{
					OFFSET 0.00000 -3.74820 0.00000
					CHANNELS 3 Zrotation Xrotation Yrotation
					JOINT RightToeBase
					{
						OFFSET 0.00000 0.06325 14.43120
						CHANNELS 3 Zrotation Xrotation Yrotation
						End site
						{
							OFFSET 0.00000 0.00000 0.00000
						}
					}
				}
			}
		}
	}
	JOINT LeftUpLeg
	{
		OFFSET 9.98441 0.00000 0.00000
		CHANNELS 3 Zrotation Xrotation Yrotation
		JOINT LeftLeg
		{
			OFFSET 0.00000 -42.11800 0.00000
			CHANNELS 3 Zrotation Xrotation Yrotation
			JOINT LeftFoot
			{
				OFFSET 0.00000 -45.00070 0.00000
				CHANNELS 3 Zrotation Xrotation Yrotation
				JOINT LeftForeFoot
				{
					OFFSET 0.00000 -3.74824 0.00000
					CHANNELS 3 Zrotation Xrotation Yrotation
					JOINT LeftToeBase
					{
						OFFSET 0.00000 0.06325 14.43110
						CHANNELS 3 Zrotation Xrotation Yrotation
						End site
						{
							OFFSET 0.00000 0.00000 0.00000
						}
					}
				}
			}
		}
	}
}
MOTION
Frames: 4
Frame Time: 0.050000
0.011036000261681464 0.014467163363096372 -0.007120067415203162 -0.028390066911185508 -0.002722669337942078 -0.006204635445230556 3.583451221193211 4.627508213333602 -1.8649377197749122 -0.7971040343902999 3.4904787215881994 0.3609974824095265 -0.5483914291448951 -0.6534375079148221 -0.35254503685336386 -0.4180474737816152 -0.27047151583540585 -0.5156019878131107 -0.8958696805231153 10.992040759818021 0.4789466200049326 -0.062202893306127625 -1.211582096478805 1.2790528893854038 -0.002056548401574064 -17.77648425988125 0.0928486143229441 -7.234795994828968 2.9580400094553645 -15.954108219465754 76.1505580636531 -0.7854904587684945 6.13872379855381 7.7887304983870225 3.2063273059039803 86.55226998912792 8.925545338902502 -0.17071442598207223 -2.326194530537053 4.543964144955954 -0.1363023834580786 -1.6072448082258122 -0.0033668311247565808 0.00010090274191118704 -56.23465008171018 0.01107068008342954 -0.028181843830078813 -56.20905854969337 -38.81245713715888 -0.021353521648286366 -0.04392381858077219 0.021884389964959585 0.020359755907365645 -0.016481436836107675 -0.030512247983149166 0.007970353328174678 -0.008277990285278007 -36.73135970355185 -0.0211766245949965 0.02886052778469271 0.044926948531848226 0.03562857208880721 -0.024316053064965464 -0.011112296238737914 -0.03326418039436957 -0.016639657856389215 -19.792376501034838 0.004076098074146952 0.04156246315398673 -0.03620031778003804 0.03774671716096028 0.013803490275785958 0.023465484695504416 0.04288139585341638 -0.030623927155675783 24.05491817406071 -0.016221026726629915 0.03402862088324309 28.83632268764997 -0.04389303699817699 0.03093902213557837 28.83872770400154 0.021390056976925368 -0.031253291165118026 9.496022645587006 2.413573651752267 13.404303846288597 -68.63528462801312 18.93038640430786 -21.892285396495314 -6.206926837937424 -2.658945313858451 -88.14338631946697 -7.776345485770028 -3.0708166739745733 0.07443132428834329 -0.4382564944638192 0.09814283972456292 -8.093954926575549 -0.01503401404480691 0.03968612513808495 44.54833845161231 0.02438030250915674 -0.03824334538084839 44.536172856226734 12.500029998265815 -0.005158895565027717 0.0243075730433401 0.024083926902489682 0.01438768780948329 -0.01454612631355239 0.027901222655259746 0.03238104923325555 0.017113187506314773 11.07839902278812 0.002936513823737028 -0.007738830459347461 0.0347175876187974 0.034531673657835306 -0.04179817587085061 0.02293163062143415 -0.016317910649410485 0.027473704875615703 4.759967164832042 0.005508100764300573 -0.006965558254501874 0.009831020930558727 0.012773042562617501 0.04698358910342277 0.008695605082953224 0.017317756231155144 -0.03103022335413487 -5.616776882403631 -0.01533884929153057 -0.020451561128570217 -6.692246772806462 0.03672045777311881 0.036735376861497505 -6.751357589134671 0.018456690319198915 -0.018800112109693293 -0.011457867090644787 0.0020010835355975206 0.0018162049374104811 8.000343149449415 3.4492245949584053 -19.213239736405484 0.04713017737228663 10.43765953225456 0.04903149927708926 -5.587699856684338 -15.689823383250786 3.1756645949011393 -0.00969120983440759 -0.026256617275236073 -0.009071813992694985 0.02442143596314482 4.6957792443153705 -0.027822914385389304 12.49169586034596 -8.192907095990462 6.8922893054813645 0.035021792436900415 46.36330449304373 0.0178928079334185 -4.30875340690332 -14.78140250824063 -3.84375446407922 -0.020315075341896558 0.01032378548424598 -0.002435946650519141 -0.00255355057599824 -10.7022949289068 -0.025299093911979594 
-0.02768925686995114 -0.04912502341521996 -0.010422092039797909 0.041457298373421096 -0.002264732780228599 0.02282681344156594 3.4822673031145595 4.568440823996926 -1.8119861602422498 -0.8154518548287564 3.4960048565792192 0.38533480178585683 -0.5911385371815615 -0.6004067237076037 -0.36331221056704815 -0.3757274162922486 -0.22677572492792597 -0.47721821959411914 -0.7385544322845747 11.124184103907169 0.3236022453823709 -0.035488164508182526 -1.154122201213477 0.8384725485332619 0.0032605254631231637 -17.447904226398215 0.08223614148755296 -7.1930459587977875 2.901886559300609 -16.049152610200526 75.29456375429316 -0.31919705982087704 7.140030403415532 8.318523436818664 3.525254701607667 86.64276428731517 9.359973536050214 -0.22626995551356785 -2.3921604384916013 4.488332820939764 -0.13937712879833813 -1.5661596367615698 0.02701971757180651 -0.002382678096678406 -56.2268480156818 0.0314577511145287 -0.00206019487058103 -56.252997589328594 -38.7818213349624 0.01449984217932913 -0.00549064836840622 0.032036564108954564 0.04371267782703688 0.009866660244671794 -0.029831945525165368 0.008253893537430588 -0.007708312224152277 -36.662390756781406 -0.0002956091540344375 -0.02174639759365167 0.014114065783220824 -0.04418217647865162 -0.016261461324674775 0.01791287917950848 0.03227733387978935 -0.03045275901737189 -19.74852605373848 -0.03724625233905285 -0.040728207359821564 -0.03966525514583667 0.026429006263832627 0.03999003438961475 0.03105212681123044 -0.017530393220580226 0.003144012027997133 24.016303028414985 0.025353836496302556 0.010596195529810401 28.898837893910095 0.01576047819534731 0.03635227726632913 28.832795302879333 -0.008762816702309741 -0.0039135097529554765 9.215955565469748 2.36776987757127 13.4168799403269 -68.25845508705761 20.482109342882374 -21.741521437031306 -5.6614980587026915 -1.9327908194396646 -88.6234247009253 -9.049972016754964 -3.1452658374305016 0.34279537337464744 -0.5217639740035694 0.08843687977326345 -8.168360629541533 0.002213137403845132 0.016340267597905907 44.60461065629185 -0.031541284729923166 -0.021845794189317435 44.559038018425696 12.445405636221588 0.000174372032371263 -0.008906345107341111 0.047482623041931085 0.02363533811081457 -0.019462303731615494 -0.025271725541263158 0.03400230704135162 -0.02918913197818987 11.091171863970004 0.03953506779909264 0.007109586838744389 0.016209504935664837 0.026216300471149506 0.005507407980458707 0.025960838382664605 0.010883916911243866 0.03419589552890792 4.730212051113012 0.035148159269250794 0.011114386159888585 0.023130015899398598 -0.02509905008388178 -0.02434696579765423 -0.011972198222841705 0.022827518527758425 0.02306920253006176 -5.577741152530009 0.039021597065829625 -0.028953909017627295 -6.703443523354404 -0.011747611993840746 0.01428007461663152 -6.707771486765913 0.009791485489409214 -0.03883493575635087 -0.022689346657954117 -0.028656091336485164 0.04992719752456352 8.06378822408379 3.4905673751034483 -19.218353200901827 0.00042396857588646177 10.398657691239343 0.029059652533296235 -5.58813401593043 -15.66037771590192 3.152404635153576 0.023066347968068498 -0.013285163784020861 -0.023221563770691293 0.026457127060188178 4.711092474331596 -0.017195190123814926 12.494768350442001 -8.192717751491381 6.852970409373528 0.04550822497375022 46.33455643021343 -0.02886608010215108 -4.319300910872589 -14.771947197964131 -3.820189628287989 -0.025268545646285008 -0.028890134049553574 0.004543362277776139 0.021877571229917618 -10.710275673420483 -0.03459846098396858 
0.030769767425342893 -0.04946255024598195 0.03487523981173975 0.006596483036697147 0.008707660905953391 0.011773834851592821 3.4367451941492577 4.458853015154058 -1.8402477661136543 -0.8830831789387119 3.5329557097895714 0.4244103537263604 -0.6330727338907868 -0.6005076350989861 -0.3415934795347956 -0.37235751682813395 -0.13670919288684538 -0.4899603010835763 -0.686184167627828 11.25478831182121 0.19300941553809725 -0.032321155071301594 -0.9742585163581118 0.4587792062346224 0.05345329491519368 -17.09806823035668 0.062439970471622155 -7.286506372181708 2.9496466429400994 -16.022580789700868 74.41333725551704 -0.4759935205933619 8.126963257659279 8.729551275654222 3.673069321817637 87.21280689612473 9.822989216760934 -0.2769448846379069 -2.518705187513643 4.561548957245646 -0.1092363309645744 -1.6399467970533386 -0.013930039476629215 0.03521549813515385 -56.2607040712985 -0.009412441657000746 -0.01181901078512626 -56.27256650520837 -38.74851896066242 0.04671659123369638 -0.01992226584504159 0.016274589909476275 0.04847860227166076 0.03821031957438744 0.02617434320198017 0.02252327849966087 0.0011866313271618836 -36.66487658578846 0.004498155550687195 0.012643616609003023 -0.010730901978533552 0.008570288860818542 -0.0028687987932157757 0.011092430701406714 0.02517686548200286 -0.0003062306005718676 -19.782094490774757 0.003929818953886047 -0.04888372057789888 0.016759882032834014 -0.040248068296184686 0.03608076742784126 0.001032898455888076 -0.02691235991688715 0.009686449525939273 24.035673198523412 -0.02355710494562556 0.03397351623086973 28.83693902054897 0.027913467046259723 0.010779992694000078 28.902038867462696 -0.012594232338947494 0.00768641736017072 9.03154476474583 2.307647286443826 13.391141810011602 -67.94210753661274 21.457746650477784 -21.58628035881092 -5.183219770796827 -1.6695624301489802 -89.09662929581587 -10.15492193952702 -3.3804144502984395 0.5859348782849773 -0.45001497205971924 0.061386865365071444 -8.109587125271904 0.013924747116212914 -0.012497471292180855 44.595216624915786 -0.026186852763108528 0.008120028672804706 44.59467768906305 12.44948061559168 0.01326769432791861 0.037934554084392724 -0.021138381481802457 0.03679827432528922 -0.022526840752936452 -0.03562649208364803 0.01120078804484738 0.02434691630931215 11.140734731263816 -0.0005069494258695122 0.03532823922932856 0.011874432240460402 0.011419707169667993 -0.03707935240226852 -0.04268521900989947 -0.010303088132411813 -0.024159437201993216 4.780152098632628 0.02707832386363733 -0.01285878184740456 -0.013894802732113298 0.009575307321901295 0.035321271447278965 0.03174916689366277 -0.0026581404169893985 0.004735200812403465 -5.574083716622647 0.023135870610828366 -0.0051672885224110605 -6.700892684542153 -0.04880850062516597 -0.0075026192356458426 -6.681430244624076 -0.032570398168057416 -0.0006494101825786712 -0.016143803911680847 -0.005213828316339155 -0.01275958221540545 8.085377227996023 3.514887624011559 -19.207390862374147 -0.0008755155375994969 10.392504384067092 0.05534983794173305 -5.662148443200719 -15.621243652753039 3.165284059411544 -0.03435399016701496 -0.03801067189154948 -0.04946026260628235 0.037396508077905434 4.702362237338789 0.027675332101744804 12.432748730741665 -8.205261553616161 6.834226445208844 0.006762870160769406 46.35013754513784 -0.03896458146901406 -4.301086019393125 -14.75852769478092 -3.874521823057733 0.036748279804169344 0.006828161980266269 -0.049484072385178775 0.036773165285477666 -10.745977682513333 0.031143166380667782 
-0.048652654583461984 -0.023104865564305063 0.03270503262950128 -0.035107371846370104 -0.019262490785772055 -0.011837269306752033 3.2877072458830474 4.359255140462594 -1.8156450601493417 -0.7975893808068112 3.5472598383398353 0.35621653715732715 -0.6418711763828847 -0.6291841386936728 -0.2828679378527045 -0.31904115097024033 -0.15662993350598825 -0.4848321215237595 -0.5704624800032857 11.412847104690844 -0.012217571801601919 0.07821097945549564 -0.7884310932887533 0.10498396821776856 0.11694712568643592 -16.796562409260623 0.049749165655327 -7.287437089056724 2.9085563899090485 -16.047308466321827 73.3611152711271 -1.2398374065410591 8.723935006335488 9.653609015303003 3.5690433375349624 87.84116634773879 10.331093937459949 -0.2876757613135699 -2.7619016544909196 4.531764575725903 -0.14509508261596044 -1.6369766353496262 -0.008729726921662536 0.006285676947203484 -56.253795051239265 -0.019688904639669193 0.023374746866360107 -56.27722823988021 -38.750107774967 0.0030796797673603086 -0.04858070208708307 -0.006898630168091142 -0.03722531949196044 -0.028666057670626216 0.0014673488914428837 0.0083943638679221 0.04781281081531108 -36.69891890295101 0.0012539377312563956 -0.008731650706944042 -0.03721357813826132 -0.011465840618699555 0.025221914835392878 0.0044367278973200495 0.0032471124093637 0.03390203267553064 -19.801282451914865 -0.03913499783220603 -0.02924616329717165 -0.03139275562327274 -0.03849250970366295 -0.02339059571160285 0.025139892961981797 -0.004421595625835497 -0.02135627506525316 24.02967725729137 -0.04049927248506979 -0.007841767438465347 28.866540861596114 0.02277066555925156 0.03794695582233268 28.841742855393985 0.02190671438909335 0.023661142090851656 8.768207545458997 2.254147181311829 13.376966347123838 -67.46848453628574 21.9458984805191 -20.954766833475784 -6.0037214428569765 -1.439495264361388 -89.48410182433241 -11.141441123902064 -3.701294716704591 0.8589846893079403 -0.4467231123945281 0.035712636216004234 -8.149951942466485 0.025608547805311882 0.04589643194838726 44.52228096296556 -0.04368705190717399 -0.0019278210078716243 44.542752971740384 12.43086819807716 -0.014711255920058133 0.01956728113008994 -0.038210534707223895 0.037169483051264926 0.032925954472579094 -0.024209101701656122 0.00024115086456602246 -0.006843053242500713 11.056530631865906 0.0302266612838355 0.04830505098653153 -0.023006853898610492 0.029033384403622665 0.012694652934816385 -0.023193072711719973 0.021509107327402365 -0.049494829401415884 4.794581089239499 -0.0364672271415037 0.020570490985378147 -0.0187873755217526 0.0033871461796333366 0.009583223069532652 -0.01735759396270031 0.0068317738913887295 0.011574743032570061 -5.579355181210504 0.035354102129040686 0.0036525807858678854 -6.740814485801206 -0.009811675891615277 0.02004574144525346 -6.694640218768043 -0.005203288775341619 0.03634387569068972 -0.04508325737430335 0.032280362731150765 -0.008935413310986323 8.000288324034937 3.46565807399343 -19.21001837204939 -0.014122835084372495 10.375863271084306 0.033922248408724945 -5.601585681523585 -15.618120052074394 3.15337593131491 -0.00029219025123161576 0.021657574531913592 0.04652925722488619 -0.004559158698539575 4.658755645069583 0.010860204434271948 12.42502808534915 -8.251051190454968 6.879668260577803 0.030347023127609778 46.395883247148255 -0.02013487375194467 -4.354521567044783 -14.741964019435322 -3.7896584551706467 -0.001720314639281558 0.0378664433982872 0.024439734282694532 -0.02294139000820656 -10.712911160728519 0.01739791266477633 
